# xmcd
#
# Track frame offsets: 
#        150
#        8460
#        19384
#        29463
#        39844
#        50675
#        62679
#        72270
#        83294
#        93523
#        103296
#        113375
#        124136
#        133759
#        144568
#        155343
#        166901
#        177307
#        188448
#        199390
#        211991
#        221558
#        232241
#        241284
#        253876
#
# Disc length: 3555 seconds
#
# Revision: 1
# Processed by: cddbd v1.5.2PL0 Copyright (c) Steve Scherf et al.
# Submitted via: ExactAudioCopyFreeDBPlugin 1.0
#
DISCID=5d0de119
DTITLE=Various Artist - The Vee Jay Records Story [Real Gone Music]
DYEAR=2017
DGENRE=Rhythm and Blues
TTITLE0=The Deltones - I'm Coming Home
TTITLE1=The Co-Hearts - Cry Baby
TTITLE2=Leonard Carbo - Pigtails and Blue Jeans
TTITLE3=The Dells - I'm Calling
TTITLE4=Wade Flemons - Here I Stand
TTITLE5=Mickey Tillman - Dear Mom and Dad
TTITLE6=The Capers - Early One Morning
TTITLE7=The Deltones - A Lovers Prayer
TTITLE8=The Ravels - Shombalor
TTITLE9=The Goldenrods - Wish I Was Back in School
TTITLE10=Harold Burrage - Crying for My Baby
TTITLE11=The Dells - Dry Your Eyes
TTITLE12=Roscoe Gordon - Just a Little Bit
TTITLE13=Jimmy Reed - Baby What You Want Me to Do
TTITLE14=Wade Flemons - What's Happening
TTITLE15=Donnie Elbert - Will You Ever Be Mine
TTITLE16=Gene Allison - Why Do You Treat Me So Cold
TTITLE17=Roscoe Gordon - Surely I Love You
TTITLE18=Donnie Elbert - Half as Old
TTITLE19=Jerry Butler - He Will Break Your Heart
TTITLE20=The Magnificents - Let's Do the Cha Cha
TTITLE21=The Dells - Swingin' Teens
TTITLE22=Eddie Harris - Exodus
TTITLE23=Jimmy Reed - Big Boss Man
TTITLE24=Dee Clark - Raindrops
EXTD=
EXTT0=
EXTT1=
EXTT2=
EXTT3=
EXTT4=
EXTT5=
EXTT6=
EXTT7=
EXTT8=
EXTT9=
EXTT10=
EXTT11=
EXTT12=
EXTT13=
EXTT14=
EXTT15=
EXTT16=
EXTT17=
EXTT18=
EXTT19=
EXTT20=
EXTT21=
EXTT22=
EXTT23=
EXTT24=
PLAYORDER=
